<?xml version="1.0" encoding="UTF-8" standalone="no"?>
<!DOCTYPE svg PUBLIC "-//W3C//DTD SVG 1.1//EN"
 "http://www.w3.org/Graphics/SVG/1.1/DTD/svg11.dtd">
<!-- Generated by graphviz version 10.0.1 (20240210.2158)
 -->
<!-- Pages: 1 -->
<svg width="531pt" height="1069pt"
 viewBox="0.00 0.00 530.66 1069.00" xmlns="http://www.w3.org/2000/svg" xmlns:xlink="http://www.w3.org/1999/xlink">
<g id="graph0" class="graph" transform="scale(0.639354 0.639354) rotate(0) translate(4 1668)">
<polygon fill="white" stroke="none" points="-4,4 -4,-1668 826,-1668 826,4 -4,4"/>
<!-- 1990582496336 -->
<g id="node1" class="node">
<title>1990582496336</title>
<polygon fill="#caff70" stroke="black" points="686,-32 632,-32 632,0 686,0 686,-32"/>
<text text-anchor="middle" x="659" y="-6.5" font-family="monospace" font-size="10.00"> ()</text>
</g>
<!-- 1990596460112 -->
<g id="node2" class="node">
<title>1990596460112</title>
<polygon fill="lightgrey" stroke="black" points="706,-88 612,-88 612,-68 706,-68 706,-88"/>
<text text-anchor="middle" x="659" y="-74.5" font-family="monospace" font-size="10.00">MeanBackward0</text>
</g>
<!-- 1990596460112&#45;&gt;1990582496336 -->
<g id="edge49" class="edge">
<title>1990596460112&#45;&gt;1990582496336</title>
<path fill="none" stroke="black" d="M659,-67.62C659,-61.1 659,-52.05 659,-43.4"/>
<polygon fill="black" stroke="black" points="662.5,-43.65 659,-33.65 655.5,-43.65 662.5,-43.65"/>
</g>
<!-- 1990596453056 -->
<g id="node3" class="node">
<title>1990596453056</title>
<polygon fill="lightgrey" stroke="black" points="709,-144 609,-144 609,-124 709,-124 709,-144"/>
<text text-anchor="middle" x="659" y="-130.5" font-family="monospace" font-size="10.00">AddmmBackward0</text>
</g>
<!-- 1990596453056&#45;&gt;1990596460112 -->
<g id="edge1" class="edge">
<title>1990596453056&#45;&gt;1990596460112</title>
<path fill="none" stroke="black" d="M659,-123.59C659,-117.01 659,-107.96 659,-99.73"/>
<polygon fill="black" stroke="black" points="662.5,-99.81 659,-89.81 655.5,-99.81 662.5,-99.81"/>
</g>
<!-- 1990596459776 -->
<g id="node4" class="node">
<title>1990596459776</title>
<polygon fill="lightgrey" stroke="black" points="597,-200 497,-200 497,-180 597,-180 597,-200"/>
<text text-anchor="middle" x="547" y="-186.5" font-family="monospace" font-size="10.00">AccumulateGrad</text>
</g>
<!-- 1990596459776&#45;&gt;1990596453056 -->
<g id="edge2" class="edge">
<title>1990596459776&#45;&gt;1990596453056</title>
<path fill="none" stroke="black" d="M566.51,-179.59C583.75,-171.28 609.16,-159.03 628.99,-149.47"/>
<polygon fill="black" stroke="black" points="630.49,-152.63 637.98,-145.14 627.45,-146.33 630.49,-152.63"/>
</g>
<!-- 1990596511280 -->
<g id="node5" class="node">
<title>1990596511280</title>
<polygon fill="lightblue" stroke="black" points="591,-268 503,-268 503,-236 591,-236 591,-268"/>
<text text-anchor="middle" x="547" y="-254.5" font-family="monospace" font-size="10.00">dense_2.bias</text>
<text text-anchor="middle" x="547" y="-242.5" font-family="monospace" font-size="10.00"> (64)</text>
</g>
<!-- 1990596511280&#45;&gt;1990596459776 -->
<g id="edge3" class="edge">
<title>1990596511280&#45;&gt;1990596459776</title>
<path fill="none" stroke="black" d="M547,-235.55C547,-228.34 547,-219.66 547,-211.88"/>
<polygon fill="black" stroke="black" points="550.5,-211.92 547,-201.92 543.5,-211.92 550.5,-211.92"/>
</g>
<!-- 1990596446336 -->
<g id="node6" class="node">
<title>1990596446336</title>
<polygon fill="lightgrey" stroke="black" points="703,-200 615,-200 615,-180 703,-180 703,-200"/>
<text text-anchor="middle" x="659" y="-186.5" font-family="monospace" font-size="10.00">MulBackward0</text>
</g>
<!-- 1990596446336&#45;&gt;1990596453056 -->
<g id="edge4" class="edge">
<title>1990596446336&#45;&gt;1990596453056</title>
<path fill="none" stroke="black" d="M659,-179.59C659,-173.01 659,-163.96 659,-155.73"/>
<polygon fill="black" stroke="black" points="662.5,-155.81 659,-145.81 655.5,-155.81 662.5,-155.81"/>
</g>
<!-- 1990596446432 -->
<g id="node7" class="node">
<title>1990596446432</title>
<polygon fill="lightgrey" stroke="black" points="704,-262 610,-262 610,-242 704,-242 704,-262"/>
<text text-anchor="middle" x="657" y="-248.5" font-family="monospace" font-size="10.00">MeanBackward1</text>
</g>
<!-- 1990596446432&#45;&gt;1990596446336 -->
<g id="edge5" class="edge">
<title>1990596446432&#45;&gt;1990596446336</title>
<path fill="none" stroke="black" d="M657.31,-241.62C657.58,-233.56 657.98,-221.65 658.32,-211.41"/>
<polygon fill="black" stroke="black" points="661.81,-211.74 658.65,-201.63 654.81,-211.5 661.81,-211.74"/>
</g>
<!-- 1990596459632 -->
<g id="node8" class="node">
<title>1990596459632</title>
<polygon fill="lightgrey" stroke="black" points="704,-330 610,-330 610,-310 704,-310 704,-330"/>
<text text-anchor="middle" x="657" y="-316.5" font-family="monospace" font-size="10.00">ReluBackward0</text>
</g>
<!-- 1990596459632&#45;&gt;1990596446432 -->
<g id="edge6" class="edge">
<title>1990596459632&#45;&gt;1990596446432</title>
<path fill="none" stroke="black" d="M657,-309.54C657,-300.23 657,-285.7 657,-273.7"/>
<polygon fill="black" stroke="black" points="660.5,-273.95 657,-263.95 653.5,-273.95 660.5,-273.95"/>
</g>
<!-- 1990596456176 -->
<g id="node9" class="node">
<title>1990596456176</title>
<polygon fill="lightgrey" stroke="black" points="701,-392 613,-392 613,-372 701,-372 701,-392"/>
<text text-anchor="middle" x="657" y="-378.5" font-family="monospace" font-size="10.00">AddBackward0</text>
</g>
<!-- 1990596456176&#45;&gt;1990596459632 -->
<g id="edge7" class="edge">
<title>1990596456176&#45;&gt;1990596459632</title>
<path fill="none" stroke="black" d="M657,-371.62C657,-363.56 657,-351.65 657,-341.41"/>
<polygon fill="black" stroke="black" points="660.5,-341.63 657,-331.63 653.5,-341.63 660.5,-341.63"/>
</g>
<!-- 1990596454592 -->
<g id="node10" class="node">
<title>1990596454592</title>
<polygon fill="lightgrey" stroke="black" points="656,-448 526,-448 526,-428 656,-428 656,-448"/>
<text text-anchor="middle" x="591" y="-434.5" font-family="monospace" font-size="10.00">ScatterAddBackward0</text>
</g>
<!-- 1990596454592&#45;&gt;1990596456176 -->
<g id="edge8" class="edge">
<title>1990596454592&#45;&gt;1990596456176</title>
<path fill="none" stroke="black" d="M602.5,-427.59C611.96,-419.85 625.6,-408.69 636.87,-399.47"/>
<polygon fill="black" stroke="black" points="638.94,-402.3 644.46,-393.26 634.51,-396.88 638.94,-402.3"/>
</g>
<!-- 1990596446384 -->
<g id="node11" class="node">
<title>1990596446384</title>
<polygon fill="lightgrey" stroke="black" points="635,-510 547,-510 547,-490 635,-490 635,-510"/>
<text text-anchor="middle" x="591" y="-496.5" font-family="monospace" font-size="10.00">MulBackward0</text>
</g>
<!-- 1990596446384&#45;&gt;1990596454592 -->
<g id="edge9" class="edge">
<title>1990596446384&#45;&gt;1990596454592</title>
<path fill="none" stroke="black" d="M591,-489.62C591,-481.56 591,-469.65 591,-459.41"/>
<polygon fill="black" stroke="black" points="594.5,-459.63 591,-449.63 587.5,-459.63 594.5,-459.63"/>
</g>
<!-- 1990596446144 -->
<g id="node12" class="node">
<title>1990596446144</title>
<polygon fill="lightgrey" stroke="black" points="659,-572 523,-572 523,-552 659,-552 659,-572"/>
<text text-anchor="middle" x="591" y="-558.5" font-family="monospace" font-size="10.00">IndexSelectBackward0</text>
</g>
<!-- 1990596446144&#45;&gt;1990596446384 -->
<g id="edge10" class="edge">
<title>1990596446144&#45;&gt;1990596446384</title>
<path fill="none" stroke="black" d="M591,-551.62C591,-543.56 591,-531.65 591,-521.41"/>
<polygon fill="black" stroke="black" points="594.5,-521.63 591,-511.63 587.5,-521.63 594.5,-521.63"/>
</g>
<!-- 1990596446864 -->
<g id="node13" class="node">
<title>1990596446864</title>
<polygon fill="lightgrey" stroke="black" points="632,-628 550,-628 550,-608 632,-608 632,-628"/>
<text text-anchor="middle" x="591" y="-614.5" font-family="monospace" font-size="10.00">MmBackward0</text>
</g>
<!-- 1990596446864&#45;&gt;1990596446144 -->
<g id="edge11" class="edge">
<title>1990596446864&#45;&gt;1990596446144</title>
<path fill="none" stroke="black" d="M591,-607.59C591,-601.01 591,-591.96 591,-583.73"/>
<polygon fill="black" stroke="black" points="594.5,-583.81 591,-573.81 587.5,-583.81 594.5,-583.81"/>
</g>
<!-- 1990596454496 -->
<g id="node14" class="node">
<title>1990596454496</title>
<polygon fill="lightgrey" stroke="black" points="587,-684 493,-684 493,-664 587,-664 587,-684"/>
<text text-anchor="middle" x="540" y="-670.5" font-family="monospace" font-size="10.00">ReluBackward0</text>
</g>
<!-- 1990596454496&#45;&gt;1990596446864 -->
<g id="edge12" class="edge">
<title>1990596454496&#45;&gt;1990596446864</title>
<path fill="none" stroke="black" d="M548.88,-663.59C555.9,-656.16 565.9,-645.58 574.39,-636.58"/>
<polygon fill="black" stroke="black" points="576.86,-639.07 581.18,-629.4 571.77,-634.27 576.86,-639.07"/>
</g>
<!-- 1990596446096 -->
<g id="node15" class="node">
<title>1990596446096</title>
<polygon fill="lightgrey" stroke="black" points="580,-740 492,-740 492,-720 580,-720 580,-740"/>
<text text-anchor="middle" x="536" y="-726.5" font-family="monospace" font-size="10.00">AddBackward0</text>
</g>
<!-- 1990596446096&#45;&gt;1990596454496 -->
<g id="edge13" class="edge">
<title>1990596446096&#45;&gt;1990596454496</title>
<path fill="none" stroke="black" d="M536.7,-719.59C537.18,-713.01 537.85,-703.96 538.46,-695.73"/>
<polygon fill="black" stroke="black" points="541.95,-696.04 539.2,-685.81 534.97,-695.52 541.95,-696.04"/>
</g>
<!-- 1990596447632 -->
<g id="node16" class="node">
<title>1990596447632</title>
<polygon fill="lightgrey" stroke="black" points="468,-802 338,-802 338,-782 468,-782 468,-802"/>
<text text-anchor="middle" x="403" y="-788.5" font-family="monospace" font-size="10.00">ScatterAddBackward0</text>
</g>
<!-- 1990596447632&#45;&gt;1990596446096 -->
<g id="edge14" class="edge">
<title>1990596447632&#45;&gt;1990596446096</title>
<path fill="none" stroke="black" d="M423.78,-781.62C445.55,-771.81 479.98,-756.27 504.96,-745"/>
<polygon fill="black" stroke="black" points="506.31,-748.23 513.99,-740.93 503.43,-741.85 506.31,-748.23"/>
</g>
<!-- 1990596452768 -->
<g id="node17" class="node">
<title>1990596452768</title>
<polygon fill="lightgrey" stroke="black" points="447,-870 359,-870 359,-850 447,-850 447,-870"/>
<text text-anchor="middle" x="403" y="-856.5" font-family="monospace" font-size="10.00">MulBackward0</text>
</g>
<!-- 1990596452768&#45;&gt;1990596447632 -->
<g id="edge15" class="edge">
<title>1990596452768&#45;&gt;1990596447632</title>
<path fill="none" stroke="black" d="M403,-849.54C403,-840.23 403,-825.7 403,-813.7"/>
<polygon fill="black" stroke="black" points="406.5,-813.95 403,-803.95 399.5,-813.95 406.5,-813.95"/>
</g>
<!-- 1990596447440 -->
<g id="node18" class="node">
<title>1990596447440</title>
<polygon fill="lightgrey" stroke="black" points="471,-932 335,-932 335,-912 471,-912 471,-932"/>
<text text-anchor="middle" x="403" y="-918.5" font-family="monospace" font-size="10.00">IndexSelectBackward0</text>
</g>
<!-- 1990596447440&#45;&gt;1990596452768 -->
<g id="edge16" class="edge">
<title>1990596447440&#45;&gt;1990596452768</title>
<path fill="none" stroke="black" d="M403,-911.62C403,-903.56 403,-891.65 403,-881.41"/>
<polygon fill="black" stroke="black" points="406.5,-881.63 403,-871.63 399.5,-881.63 406.5,-881.63"/>
</g>
<!-- 1990596458336 -->
<g id="node19" class="node">
<title>1990596458336</title>
<polygon fill="lightgrey" stroke="black" points="444,-988 362,-988 362,-968 444,-968 444,-988"/>
<text text-anchor="middle" x="403" y="-974.5" font-family="monospace" font-size="10.00">MmBackward0</text>
</g>
<!-- 1990596458336&#45;&gt;1990596447440 -->
<g id="edge17" class="edge">
<title>1990596458336&#45;&gt;1990596447440</title>
<path fill="none" stroke="black" d="M403,-967.59C403,-961.01 403,-951.96 403,-943.73"/>
<polygon fill="black" stroke="black" points="406.5,-943.81 403,-933.81 399.5,-943.81 406.5,-943.81"/>
</g>
<!-- 1990596457424 -->
<g id="node20" class="node">
<title>1990596457424</title>
<polygon fill="lightgrey" stroke="black" points="399,-1044 305,-1044 305,-1024 399,-1024 399,-1044"/>
<text text-anchor="middle" x="352" y="-1030.5" font-family="monospace" font-size="10.00">ReluBackward0</text>
</g>
<!-- 1990596457424&#45;&gt;1990596458336 -->
<g id="edge18" class="edge">
<title>1990596457424&#45;&gt;1990596458336</title>
<path fill="none" stroke="black" d="M360.88,-1023.59C367.9,-1016.16 377.9,-1005.58 386.39,-996.58"/>
<polygon fill="black" stroke="black" points="388.86,-999.07 393.18,-989.4 383.77,-994.27 388.86,-999.07"/>
</g>
<!-- 1990596449600 -->
<g id="node21" class="node">
<title>1990596449600</title>
<polygon fill="lightgrey" stroke="black" points="392,-1100 304,-1100 304,-1080 392,-1080 392,-1100"/>
<text text-anchor="middle" x="348" y="-1086.5" font-family="monospace" font-size="10.00">AddBackward0</text>
</g>
<!-- 1990596449600&#45;&gt;1990596457424 -->
<g id="edge19" class="edge">
<title>1990596449600&#45;&gt;1990596457424</title>
<path fill="none" stroke="black" d="M348.7,-1079.59C349.18,-1073.01 349.85,-1063.96 350.46,-1055.73"/>
<polygon fill="black" stroke="black" points="353.95,-1056.04 351.2,-1045.81 346.97,-1055.52 353.95,-1056.04"/>
</g>
<!-- 1990596447872 -->
<g id="node22" class="node">
<title>1990596447872</title>
<polygon fill="lightgrey" stroke="black" points="280,-1162 150,-1162 150,-1142 280,-1142 280,-1162"/>
<text text-anchor="middle" x="215" y="-1148.5" font-family="monospace" font-size="10.00">ScatterAddBackward0</text>
</g>
<!-- 1990596447872&#45;&gt;1990596449600 -->
<g id="edge20" class="edge">
<title>1990596447872&#45;&gt;1990596449600</title>
<path fill="none" stroke="black" d="M235.78,-1141.62C257.55,-1131.81 291.98,-1116.27 316.96,-1105"/>
<polygon fill="black" stroke="black" points="318.31,-1108.23 325.99,-1100.93 315.43,-1101.85 318.31,-1108.23"/>
</g>
<!-- 1990596455792 -->
<g id="node23" class="node">
<title>1990596455792</title>
<polygon fill="lightgrey" stroke="black" points="259,-1230 171,-1230 171,-1210 259,-1210 259,-1230"/>
<text text-anchor="middle" x="215" y="-1216.5" font-family="monospace" font-size="10.00">MulBackward0</text>
</g>
<!-- 1990596455792&#45;&gt;1990596447872 -->
<g id="edge21" class="edge">
<title>1990596455792&#45;&gt;1990596447872</title>
<path fill="none" stroke="black" d="M215,-1209.54C215,-1200.23 215,-1185.7 215,-1173.7"/>
<polygon fill="black" stroke="black" points="218.5,-1173.95 215,-1163.95 211.5,-1173.95 218.5,-1173.95"/>
</g>
<!-- 1990596449456 -->
<g id="node24" class="node">
<title>1990596449456</title>
<polygon fill="lightgrey" stroke="black" points="283,-1292 147,-1292 147,-1272 283,-1272 283,-1292"/>
<text text-anchor="middle" x="215" y="-1278.5" font-family="monospace" font-size="10.00">IndexSelectBackward0</text>
</g>
<!-- 1990596449456&#45;&gt;1990596455792 -->
<g id="edge22" class="edge">
<title>1990596449456&#45;&gt;1990596455792</title>
<path fill="none" stroke="black" d="M215,-1271.62C215,-1263.56 215,-1251.65 215,-1241.41"/>
<polygon fill="black" stroke="black" points="218.5,-1241.63 215,-1231.63 211.5,-1241.63 218.5,-1241.63"/>
</g>
<!-- 1990596457712 -->
<g id="node25" class="node">
<title>1990596457712</title>
<polygon fill="lightgrey" stroke="black" points="256,-1348 174,-1348 174,-1328 256,-1328 256,-1348"/>
<text text-anchor="middle" x="215" y="-1334.5" font-family="monospace" font-size="10.00">MmBackward0</text>
</g>
<!-- 1990596457712&#45;&gt;1990596449456 -->
<g id="edge23" class="edge">
<title>1990596457712&#45;&gt;1990596449456</title>
<path fill="none" stroke="black" d="M215,-1327.59C215,-1321.01 215,-1311.96 215,-1303.73"/>
<polygon fill="black" stroke="black" points="218.5,-1303.81 215,-1293.81 211.5,-1303.81 218.5,-1303.81"/>
</g>
<!-- 1990596458144 -->
<g id="node26" class="node">
<title>1990596458144</title>
<polygon fill="lightgrey" stroke="black" points="211,-1404 117,-1404 117,-1384 211,-1384 211,-1404"/>
<text text-anchor="middle" x="164" y="-1390.5" font-family="monospace" font-size="10.00">ReluBackward0</text>
</g>
<!-- 1990596458144&#45;&gt;1990596457712 -->
<g id="edge24" class="edge">
<title>1990596458144&#45;&gt;1990596457712</title>
<path fill="none" stroke="black" d="M172.88,-1383.59C179.9,-1376.16 189.9,-1365.58 198.39,-1356.58"/>
<polygon fill="black" stroke="black" points="200.86,-1359.07 205.18,-1349.4 195.77,-1354.27 200.86,-1359.07"/>
</g>
<!-- 1990596451424 -->
<g id="node27" class="node">
<title>1990596451424</title>
<polygon fill="lightgrey" stroke="black" points="207,-1460 107,-1460 107,-1440 207,-1440 207,-1460"/>
<text text-anchor="middle" x="157" y="-1446.5" font-family="monospace" font-size="10.00">AddmmBackward0</text>
</g>
<!-- 1990596451424&#45;&gt;1990596458144 -->
<g id="edge25" class="edge">
<title>1990596451424&#45;&gt;1990596458144</title>
<path fill="none" stroke="black" d="M158.22,-1439.59C159.08,-1432.93 160.27,-1423.75 161.35,-1415.44"/>
<polygon fill="black" stroke="black" points="164.79,-1416.17 162.6,-1405.8 157.84,-1415.27 164.79,-1416.17"/>
</g>
<!-- 1990596452672 -->
<g id="node28" class="node">
<title>1990596452672</title>
<polygon fill="lightgrey" stroke="black" points="100,-1522 0,-1522 0,-1502 100,-1502 100,-1522"/>
<text text-anchor="middle" x="50" y="-1508.5" font-family="monospace" font-size="10.00">AccumulateGrad</text>
</g>
<!-- 1990596452672&#45;&gt;1990596451424 -->
<g id="edge26" class="edge">
<title>1990596452672&#45;&gt;1990596451424</title>
<path fill="none" stroke="black" d="M66.72,-1501.62C83.76,-1492.07 110.45,-1477.11 130.39,-1465.92"/>
<polygon fill="black" stroke="black" points="132.07,-1468.99 139.08,-1461.05 128.64,-1462.89 132.07,-1468.99"/>
</g>
<!-- 1990596513520 -->
<g id="node29" class="node">
<title>1990596513520</title>
<polygon fill="lightblue" stroke="black" points="91,-1596 3,-1596 3,-1564 91,-1564 91,-1596"/>
<text text-anchor="middle" x="47" y="-1582.5" font-family="monospace" font-size="10.00">dense_1.bias</text>
<text text-anchor="middle" x="47" y="-1570.5" font-family="monospace" font-size="10.00"> (4)</text>
</g>
<!-- 1990596513520&#45;&gt;1990596452672 -->
<g id="edge27" class="edge">
<title>1990596513520&#45;&gt;1990596452672</title>
<path fill="none" stroke="black" d="M47.7,-1563.69C48.1,-1554.8 48.62,-1543.46 49.06,-1533.77"/>
<polygon fill="black" stroke="black" points="52.55,-1533.98 49.51,-1523.83 45.56,-1533.66 52.55,-1533.98"/>
</g>
<!-- 1990596453344 -->
<g id="node30" class="node">
<title>1990596453344</title>
<polygon fill="lightgrey" stroke="black" points="195,-1522 119,-1522 119,-1502 195,-1502 195,-1522"/>
<text text-anchor="middle" x="157" y="-1508.5" font-family="monospace" font-size="10.00">TBackward0</text>
</g>
<!-- 1990596453344&#45;&gt;1990596451424 -->
<g id="edge28" class="edge">
<title>1990596453344&#45;&gt;1990596451424</title>
<path fill="none" stroke="black" d="M157,-1501.62C157,-1493.56 157,-1481.65 157,-1471.41"/>
<polygon fill="black" stroke="black" points="160.5,-1471.63 157,-1461.63 153.5,-1471.63 160.5,-1471.63"/>
</g>
<!-- 1990596455552 -->
<g id="node31" class="node">
<title>1990596455552</title>
<polygon fill="lightgrey" stroke="black" points="209,-1590 109,-1590 109,-1570 209,-1570 209,-1590"/>
<text text-anchor="middle" x="159" y="-1576.5" font-family="monospace" font-size="10.00">AccumulateGrad</text>
</g>
<!-- 1990596455552&#45;&gt;1990596453344 -->
<g id="edge29" class="edge">
<title>1990596455552&#45;&gt;1990596453344</title>
<path fill="none" stroke="black" d="M158.71,-1569.54C158.43,-1560.23 157.99,-1545.7 157.63,-1533.7"/>
<polygon fill="black" stroke="black" points="161.13,-1533.84 157.33,-1523.95 154.14,-1534.05 161.13,-1533.84"/>
</g>
<!-- 1990596518000 -->
<g id="node32" class="node">
<title>1990596518000</title>
<polygon fill="lightblue" stroke="black" points="209,-1664 109,-1664 109,-1632 209,-1632 209,-1664"/>
<text text-anchor="middle" x="159" y="-1650.5" font-family="monospace" font-size="10.00">dense_1.weight</text>
<text text-anchor="middle" x="159" y="-1638.5" font-family="monospace" font-size="10.00"> (4, 4)</text>
</g>
<!-- 1990596518000&#45;&gt;1990596455552 -->
<g id="edge30" class="edge">
<title>1990596518000&#45;&gt;1990596455552</title>
<path fill="none" stroke="black" d="M159,-1631.69C159,-1622.8 159,-1611.46 159,-1601.77"/>
<polygon fill="black" stroke="black" points="162.5,-1601.83 159,-1591.83 155.5,-1601.83 162.5,-1601.83"/>
</g>
<!-- 1990596451568 -->
<g id="node33" class="node">
<title>1990596451568</title>
<polygon fill="lightgrey" stroke="black" points="309,-1404 233,-1404 233,-1384 309,-1384 309,-1404"/>
<text text-anchor="middle" x="271" y="-1390.5" font-family="monospace" font-size="10.00">TBackward0</text>
</g>
<!-- 1990596451568&#45;&gt;1990596457712 -->
<g id="edge31" class="edge">
<title>1990596451568&#45;&gt;1990596457712</title>
<path fill="none" stroke="black" d="M261.25,-1383.59C253.38,-1376.01 242.1,-1365.13 232.65,-1356.02"/>
<polygon fill="black" stroke="black" points="235.36,-1353.77 225.73,-1349.35 230.5,-1358.81 235.36,-1353.77"/>
</g>
<!-- 1990596447200 -->
<g id="node34" class="node">
<title>1990596447200</title>
<polygon fill="lightgrey" stroke="black" points="325,-1460 225,-1460 225,-1440 325,-1440 325,-1460"/>
<text text-anchor="middle" x="275" y="-1446.5" font-family="monospace" font-size="10.00">AccumulateGrad</text>
</g>
<!-- 1990596447200&#45;&gt;1990596451568 -->
<g id="edge32" class="edge">
<title>1990596447200&#45;&gt;1990596451568</title>
<path fill="none" stroke="black" d="M274.3,-1439.59C273.82,-1433.01 273.15,-1423.96 272.54,-1415.73"/>
<polygon fill="black" stroke="black" points="276.03,-1415.52 271.8,-1405.81 269.05,-1416.04 276.03,-1415.52"/>
</g>
<!-- 1990596513680 -->
<g id="node35" class="node">
<title>1990596513680</title>
<polygon fill="lightblue" stroke="black" points="337,-1528 213,-1528 213,-1496 337,-1496 337,-1528"/>
<text text-anchor="middle" x="275" y="-1514.5" font-family="monospace" font-size="10.00">gconv_1.lin.weight</text>
<text text-anchor="middle" x="275" y="-1502.5" font-family="monospace" font-size="10.00"> (32, 4)</text>
</g>
<!-- 1990596513680&#45;&gt;1990596447200 -->
<g id="edge33" class="edge">
<title>1990596513680&#45;&gt;1990596447200</title>
<path fill="none" stroke="black" d="M275,-1495.55C275,-1488.34 275,-1479.66 275,-1471.88"/>
<polygon fill="black" stroke="black" points="278.5,-1471.92 275,-1461.92 271.5,-1471.92 278.5,-1471.92"/>
</g>
<!-- 1990596452144 -->
<g id="node36" class="node">
<title>1990596452144</title>
<polygon fill="lightgrey" stroke="black" points="398,-1162 298,-1162 298,-1142 398,-1142 398,-1162"/>
<text text-anchor="middle" x="348" y="-1148.5" font-family="monospace" font-size="10.00">AccumulateGrad</text>
</g>
<!-- 1990596452144&#45;&gt;1990596449600 -->
<g id="edge34" class="edge">
<title>1990596452144&#45;&gt;1990596449600</title>
<path fill="none" stroke="black" d="M348,-1141.62C348,-1133.56 348,-1121.65 348,-1111.41"/>
<polygon fill="black" stroke="black" points="351.5,-1111.63 348,-1101.63 344.5,-1111.63 351.5,-1111.63"/>
</g>
<!-- 1990596513760 -->
<g id="node37" class="node">
<title>1990596513760</title>
<polygon fill="lightblue" stroke="black" points="392,-1236 304,-1236 304,-1204 392,-1204 392,-1236"/>
<text text-anchor="middle" x="348" y="-1222.5" font-family="monospace" font-size="10.00">gconv_1.bias</text>
<text text-anchor="middle" x="348" y="-1210.5" font-family="monospace" font-size="10.00"> (32)</text>
</g>
<!-- 1990596513760&#45;&gt;1990596452144 -->
<g id="edge35" class="edge">
<title>1990596513760&#45;&gt;1990596452144</title>
<path fill="none" stroke="black" d="M348,-1203.69C348,-1194.8 348,-1183.46 348,-1173.77"/>
<polygon fill="black" stroke="black" points="351.5,-1173.83 348,-1163.83 344.5,-1173.83 351.5,-1173.83"/>
</g>
<!-- 1990596452192 -->
<g id="node38" class="node">
<title>1990596452192</title>
<polygon fill="lightgrey" stroke="black" points="500,-1044 424,-1044 424,-1024 500,-1024 500,-1044"/>
<text text-anchor="middle" x="462" y="-1030.5" font-family="monospace" font-size="10.00">TBackward0</text>
</g>
<!-- 1990596452192&#45;&gt;1990596458336 -->
<g id="edge36" class="edge">
<title>1990596452192&#45;&gt;1990596458336</title>
<path fill="none" stroke="black" d="M451.72,-1023.59C443.43,-1016.01 431.55,-1005.13 421.6,-996.02"/>
<polygon fill="black" stroke="black" points="424.02,-993.49 414.28,-989.32 419.29,-998.65 424.02,-993.49"/>
</g>
<!-- 1990596455168 -->
<g id="node39" class="node">
<title>1990596455168</title>
<polygon fill="lightgrey" stroke="black" points="519,-1100 419,-1100 419,-1080 519,-1080 519,-1100"/>
<text text-anchor="middle" x="469" y="-1086.5" font-family="monospace" font-size="10.00">AccumulateGrad</text>
</g>
<!-- 1990596455168&#45;&gt;1990596452192 -->
<g id="edge37" class="edge">
<title>1990596455168&#45;&gt;1990596452192</title>
<path fill="none" stroke="black" d="M467.78,-1079.59C466.92,-1072.93 465.73,-1063.75 464.65,-1055.44"/>
<polygon fill="black" stroke="black" points="468.16,-1055.27 463.4,-1045.8 461.21,-1056.17 468.16,-1055.27"/>
</g>
<!-- 1990596512560 -->
<g id="node40" class="node">
<title>1990596512560</title>
<polygon fill="lightblue" stroke="black" points="540,-1168 416,-1168 416,-1136 540,-1136 540,-1168"/>
<text text-anchor="middle" x="478" y="-1154.5" font-family="monospace" font-size="10.00">gconv_2.lin.weight</text>
<text text-anchor="middle" x="478" y="-1142.5" font-family="monospace" font-size="10.00"> (32, 32)</text>
</g>
<!-- 1990596512560&#45;&gt;1990596455168 -->
<g id="edge38" class="edge">
<title>1990596512560&#45;&gt;1990596455168</title>
<path fill="none" stroke="black" d="M475.68,-1135.55C474.59,-1128.26 473.27,-1119.45 472.09,-1111.6"/>
<polygon fill="black" stroke="black" points="475.58,-1111.27 470.64,-1101.9 468.66,-1112.31 475.58,-1111.27"/>
</g>
<!-- 1990596444752 -->
<g id="node41" class="node">
<title>1990596444752</title>
<polygon fill="lightgrey" stroke="black" points="586,-802 486,-802 486,-782 586,-782 586,-802"/>
<text text-anchor="middle" x="536" y="-788.5" font-family="monospace" font-size="10.00">AccumulateGrad</text>
</g>
<!-- 1990596444752&#45;&gt;1990596446096 -->
<g id="edge39" class="edge">
<title>1990596444752&#45;&gt;1990596446096</title>
<path fill="none" stroke="black" d="M536,-781.62C536,-773.56 536,-761.65 536,-751.41"/>
<polygon fill="black" stroke="black" points="539.5,-751.63 536,-741.63 532.5,-751.63 539.5,-751.63"/>
</g>
<!-- 1990596512800 -->
<g id="node42" class="node">
<title>1990596512800</title>
<polygon fill="lightblue" stroke="black" points="580,-876 492,-876 492,-844 580,-844 580,-876"/>
<text text-anchor="middle" x="536" y="-862.5" font-family="monospace" font-size="10.00">gconv_2.bias</text>
<text text-anchor="middle" x="536" y="-850.5" font-family="monospace" font-size="10.00"> (32)</text>
</g>
<!-- 1990596512800&#45;&gt;1990596444752 -->
<g id="edge40" class="edge">
<title>1990596512800&#45;&gt;1990596444752</title>
<path fill="none" stroke="black" d="M536,-843.69C536,-834.8 536,-823.46 536,-813.77"/>
<polygon fill="black" stroke="black" points="539.5,-813.83 536,-803.83 532.5,-813.83 539.5,-813.83"/>
</g>
<!-- 1990596451664 -->
<g id="node43" class="node">
<title>1990596451664</title>
<polygon fill="lightgrey" stroke="black" points="688,-684 612,-684 612,-664 688,-664 688,-684"/>
<text text-anchor="middle" x="650" y="-670.5" font-family="monospace" font-size="10.00">TBackward0</text>
</g>
<!-- 1990596451664&#45;&gt;1990596446864 -->
<g id="edge41" class="edge">
<title>1990596451664&#45;&gt;1990596446864</title>
<path fill="none" stroke="black" d="M639.72,-663.59C631.43,-656.01 619.55,-645.13 609.6,-636.02"/>
<polygon fill="black" stroke="black" points="612.02,-633.49 602.28,-629.32 607.29,-638.65 612.02,-633.49"/>
</g>
<!-- 1990596455360 -->
<g id="node44" class="node">
<title>1990596455360</title>
<polygon fill="lightgrey" stroke="black" points="707,-740 607,-740 607,-720 707,-720 707,-740"/>
<text text-anchor="middle" x="657" y="-726.5" font-family="monospace" font-size="10.00">AccumulateGrad</text>
</g>
<!-- 1990596455360&#45;&gt;1990596451664 -->
<g id="edge42" class="edge">
<title>1990596455360&#45;&gt;1990596451664</title>
<path fill="none" stroke="black" d="M655.78,-719.59C654.92,-712.93 653.73,-703.75 652.65,-695.44"/>
<polygon fill="black" stroke="black" points="656.16,-695.27 651.4,-685.8 649.21,-696.17 656.16,-695.27"/>
</g>
<!-- 1990596511840 -->
<g id="node45" class="node">
<title>1990596511840</title>
<polygon fill="lightblue" stroke="black" points="728,-808 604,-808 604,-776 728,-776 728,-808"/>
<text text-anchor="middle" x="666" y="-794.5" font-family="monospace" font-size="10.00">gconv_3.lin.weight</text>
<text text-anchor="middle" x="666" y="-782.5" font-family="monospace" font-size="10.00"> (32, 32)</text>
</g>
<!-- 1990596511840&#45;&gt;1990596455360 -->
<g id="edge43" class="edge">
<title>1990596511840&#45;&gt;1990596455360</title>
<path fill="none" stroke="black" d="M663.68,-775.55C662.59,-768.26 661.27,-759.45 660.09,-751.6"/>
<polygon fill="black" stroke="black" points="663.58,-751.27 658.64,-741.9 656.66,-752.31 663.58,-751.27"/>
</g>
<!-- 1990596459968 -->
<g id="node46" class="node">
<title>1990596459968</title>
<polygon fill="lightgrey" stroke="black" points="774,-448 674,-448 674,-428 774,-428 774,-448"/>
<text text-anchor="middle" x="724" y="-434.5" font-family="monospace" font-size="10.00">AccumulateGrad</text>
</g>
<!-- 1990596459968&#45;&gt;1990596456176 -->
<g id="edge44" class="edge">
<title>1990596459968&#45;&gt;1990596456176</title>
<path fill="none" stroke="black" d="M712.33,-427.59C702.72,-419.85 688.87,-408.69 677.43,-399.47"/>
<polygon fill="black" stroke="black" points="679.7,-396.8 669.72,-393.25 675.3,-402.25 679.7,-396.8"/>
</g>
<!-- 1990596511040 -->
<g id="node47" class="node">
<title>1990596511040</title>
<polygon fill="lightblue" stroke="black" points="768,-516 680,-516 680,-484 768,-484 768,-516"/>
<text text-anchor="middle" x="724" y="-502.5" font-family="monospace" font-size="10.00">gconv_3.bias</text>
<text text-anchor="middle" x="724" y="-490.5" font-family="monospace" font-size="10.00"> (32)</text>
</g>
<!-- 1990596511040&#45;&gt;1990596459968 -->
<g id="edge45" class="edge">
<title>1990596511040&#45;&gt;1990596459968</title>
<path fill="none" stroke="black" d="M724,-483.55C724,-476.34 724,-467.66 724,-459.88"/>
<polygon fill="black" stroke="black" points="727.5,-459.92 724,-449.92 720.5,-459.92 727.5,-459.92"/>
</g>
<!-- 1990596445616 -->
<g id="node48" class="node">
<title>1990596445616</title>
<polygon fill="lightgrey" stroke="black" points="803,-200 727,-200 727,-180 803,-180 803,-200"/>
<text text-anchor="middle" x="765" y="-186.5" font-family="monospace" font-size="10.00">TBackward0</text>
</g>
<!-- 1990596445616&#45;&gt;1990596453056 -->
<g id="edge46" class="edge">
<title>1990596445616&#45;&gt;1990596453056</title>
<path fill="none" stroke="black" d="M746.54,-179.59C730.3,-171.32 706.39,-159.14 687.67,-149.6"/>
<polygon fill="black" stroke="black" points="689.46,-146.59 678.96,-145.17 686.28,-152.82 689.46,-146.59"/>
</g>
<!-- 1990596446960 -->
<g id="node49" class="node">
<title>1990596446960</title>
<polygon fill="lightgrey" stroke="black" points="822,-262 722,-262 722,-242 822,-242 822,-262"/>
<text text-anchor="middle" x="772" y="-248.5" font-family="monospace" font-size="10.00">AccumulateGrad</text>
</g>
<!-- 1990596446960&#45;&gt;1990596445616 -->
<g id="edge47" class="edge">
<title>1990596446960&#45;&gt;1990596445616</title>
<path fill="none" stroke="black" d="M770.91,-241.62C769.97,-233.56 768.58,-221.65 767.38,-211.41"/>
<polygon fill="black" stroke="black" points="770.87,-211.14 766.24,-201.62 763.92,-211.95 770.87,-211.14"/>
</g>
<!-- 1990596509840 -->
<g id="node50" class="node">
<title>1990596509840</title>
<polygon fill="lightblue" stroke="black" points="822,-336 722,-336 722,-304 822,-304 822,-336"/>
<text text-anchor="middle" x="772" y="-322.5" font-family="monospace" font-size="10.00">dense_2.weight</text>
<text text-anchor="middle" x="772" y="-310.5" font-family="monospace" font-size="10.00"> (64, 32)</text>
</g>
<!-- 1990596509840&#45;&gt;1990596446960 -->
<g id="edge48" class="edge">
<title>1990596509840&#45;&gt;1990596446960</title>
<path fill="none" stroke="black" d="M772,-303.69C772,-294.8 772,-283.46 772,-273.77"/>
<polygon fill="black" stroke="black" points="775.5,-273.83 772,-263.83 768.5,-273.83 775.5,-273.83"/>
</g>
</g>
</svg>
